<?xml version="1.0" encoding="UTF-8"?>
<svg version="1.1" viewBox="0 0 2018 2048" width="135" height="137" xmlns="http://www.w3.org/2000/svg">
<path transform="translate(268,88)" d="m0 0h12l21 3 24 5 31 9 36 12 21 8 23 10 58 28 19 10 44 22 19 10 25 13 32 16 23 12 22 12 27 15 55 31 25 13 18 10 10 6 17 10 21 12 23 12 23 11 22 12 16 8 29 15 54 27 19 10 28 14 22 12 25 14 17 10 28 16 32 17 33 17 27 15 41 24 28 15 27 13 22 12 16 8 16 9 34 18 23 13 20 10 17 9 16 7 16 8 26 14 24 14 18 10 14 8 32 16 23 12 35 18 21 12 24 13 16 8 24 13 26 15 16 12 18 13 19 14 11 8 11 9 14 12 13 13 11 14 7 11 8 16 4 14 2 14 1 18v29l-2 18-6 18-6 12-9 13-7 9-8 10-9 10-15 15-11 9-15 12-14 10-20 14-29 19-20 13-22 13-24 14-19 10-22 12-29 15-64 32-19 10-37 19-23 13-20 11-16 9-29 16-28 15-33 17-34 17-22 12-25 14-15 9-22 12-28 13-34 16-20 10-18 10-22 12-46 25-34 18-27 14-23 13-30 16-18 10-24 13-18 10-23 12-22 12-22 11-22 12-28 15-22 12-27 14-39 19-28 15-19 11-28 15-32 17-14 8-16 8-16 9-20 11-22 12-16 8-23 12-28 13-40 17-35 14-36 12-24 6-13 2-4-3h-14l-30 10-10-1-3 2-4-1-17-5-16-8-11-8-11-9-9-9-9-12-9-14-10-22-7-21-7-29-3-18-1-14-1-38-1-1497 1-36 2-19 9-42 5-18 5-13 8-16 8-12 11-12 10-8 18-11 26-11 21-6z" fill="#FEFEFE"/>
</svg>
